<?xml version="1.0" standalone="no"?>
<!DOCTYPE svg PUBLIC "-//W3C//DTD SVG 20010904//EN"
 "http://www.w3.org/TR/2001/REC-SVG-20010904/DTD/svg10.dtd">
<svg version="1.0" xmlns="http://www.w3.org/2000/svg"
 width="100.000000pt" height="100.000000pt" viewBox="0 0 100.000000 100.000000"
 preserveAspectRatio="xMidYMid meet">
<metadata>
Created by potrace 1.14, written by Peter Selinger 2001-2017
</metadata>
<g transform="translate(0.000000,100.000000) scale(0.100000,-0.100000)"
fill="#000000" stroke="none">
<path d="M344 972 c-128 -45 -227 -131 -288 -254 -70 -137 -70 -291 -1 -432
32 -67 108 -167 117 -156 3 3 64 192 138 420 73 228 135 421 138 428 6 18 -43
15 -104 -6z"/>
<path d="M824 823 c12 -38 51 -157 86 -266 68 -212 73 -217 86 -94 7 79 -14
184 -54 264 -29 57 -115 163 -132 163 -5 0 1 -30 14 -67z"/>
<path d="M607 683 c-7 -12 -87 -297 -87 -311 0 -9 27 -12 95 -12 52 0 95 3 95
6 0 8 -91 318 -95 322 -2 2 -5 0 -8 -5z"/>
<path d="M431 78 c-22 -73 -20 -76 64 -77 106 -1 304 71 290 106 -3 8 -5 19
-5 24 0 5 -71 9 -165 9 l-164 0 -20 -62z"/>
</g>
</svg>
